# xmcd
#
# Track frame offsets: 
#        150
#        19039
#        29602
#        46920
#        60638
#        74585
#        86837
#        99060
#        113199
#        127232
#        147620
#        161917
#        176853
#        190113
#        208601
#
# Disc length: 3013 seconds
#
# Revision: 0
# Processed by: cddbd v1.5.2PL0 Copyright (c) Steve Scherf et al.
# Submitted via: ExactAudioCopyFreeDBPlugin 1.0
#
DISCID=e20bc30f
DTITLE=Yancey de Veer - Cowboy Paintbrush
DYEAR=1900
DGENRE=Country
TTITLE0=Cowboy Paintbrush
TTITLE1=Ragtime Cowboy Joe
TTITLE2=Big Iron
TTITLE3=Saddle Tramp
TTITLE4=Evangelina
TTITLE5=Wayward Wind
TTITLE6=Rawhide
TTITLE7=Dancehall Girls
TTITLE8=Mariah
TTITLE9=El Paso
TTITLE10=Sawdust Man (revisited)
TTITLE11=De Colores
TTITLE12=North To Alaska
TTITLE13=Shenandoah
TTITLE14=Hobo's Lullaby
EXTD=
EXTT0=
EXTT1=
EXTT2=
EXTT3=
EXTT4=
EXTT5=
EXTT6=
EXTT7=
EXTT8=
EXTT9=
EXTT10=
EXTT11=
EXTT12=
EXTT13=
EXTT14=
PLAYORDER=
